<?xml version="1.0" encoding="UTF-8"?>
<svg xmlns="http://www.w3.org/2000/svg" xmlns:xlink="http://www.w3.org/1999/xlink" width="24pt" height="24pt" viewBox="0 0 24 24" version="1.1">
<g id="surface493669">
<path style=" stroke:none;fill-rule:nonzero;fill:rgb(90.588235%,29.803922%,23.529412%);fill-opacity:1;" d="M 10.3125 -0.03125 C 8.589844 -0.03125 7.164062 1.316406 7 3 L 2 3 L 2 5 L 6.96875 5 L 6.96875 5.03125 L 17.03125 5.03125 L 17.03125 5 L 22 5 L 22 3 L 17 3 C 16.84375 1.316406 15.484375 -0.03125 13.8125 -0.03125 Z M 10.3125 2.03125 L 13.8125 2.03125 C 14.320312 2.03125 14.695312 2.429688 14.84375 2.96875 L 9.15625 2.96875 C 9.296875 2.429688 9.6875 2.03125 10.3125 2.03125 Z M 4 6 L 4 22.5 C 4 23.300781 4.699219 24 5.5 24 L 18.59375 24 C 19.394531 24 20.09375 23.300781 20.09375 22.5 L 20.09375 6 Z M 7 9 L 8 9 L 8 22 L 7 22 Z M 10 9 L 11 9 L 11 22 L 10 22 Z M 13 9 L 14 9 L 14 22 L 13 22 Z M 16 9 L 17 9 L 17 22 L 16 22 Z M 16 9 "/>
</g>
</svg>
